<?xml version="1.0" encoding="UTF-8"?>
<svg id="Layer_2" data-name="Layer 2" xmlns="http://www.w3.org/2000/svg" viewBox="0 0 307 310.54">
  <defs>
    <style>
      .cls-1 {
        stroke: #000;
        stroke-miterlimit: 10;
      }

      .cls-2 {
        stroke-width: 0px;
      }
    </style>
  </defs>
  <g id="Black_Mark" data-name="Black Mark">
    <g>
      <path class="cls-2" d="M278.13,181.71c-5.49-7.55-12.95-14.03-22.12-13.49-7.01,0-21.58,6.48-43.17-1.62-52.88-32.38-61.52-96.59-44.79-163.5-22.84-4.13-45.69-4.13-68.53,0,27.52,69.07,24.82,121.95-4.86,154.87-11.33,13.49-24.82,12.41-42.63,9.71-7.01-.54-14.43,5.34-22.12,15.11l5.4,1.62c3.21-4.14,6.83-7.36,11.33-8.63,5.08-.62,14.57,3.24,22.12,3.78,12.45.4,24.82-1.62,32.92-5.94-.73,5.4-.16,11.44,1.08,17.81l7.55-1.62c.33-16.62,3.24-26.98,8.09-34,9.91-13.4,17.21-25.86,19.97-36.69,4.85,9.74,21.58,25.9,43.71,49.1,9.85,13.75,17.81,27.52,18.89,41.55,1.08,15.65,3.24,23.74-7.55,56.12l6.48,3.78c6.93-12.94,15.11-28.6,15.65-44.25-.49-16.36-2.05-31.06-5.94-42.09,19.46,2.94,32.38,0,44.79-4.32,7.1-1.46,13.31.32,18.35,6.48l5.4-3.78Z"/>
      <circle class="cls-1" cx="192.5" cy="288.04" r="22"/>
      <circle class="cls-1" cx="282" cy="204.54" r="24.5"/>
      <circle class="cls-1" cx="172.5" cy="211.04" r="25"/>
      <circle class="cls-1" cx="109.5" cy="215.04" r="25"/>
      <circle class="cls-1" cx="26" cy="207.54" r="25.5"/>
      <circle class="cls-1" cx="222" cy="126.54" r="29.5"/>
      <circle class="cls-1" cx="70" cy="122.54" r="29.5"/>
      <circle class="cls-1" cx="208.5" cy="42.04" r="39"/>
    </g>
  </g>
</svg>