<svg width="472" height="378" viewBox="0 0 472 378" fill="none" xmlns="http://www.w3.org/2000/svg">
<path fill-rule="evenodd" clip-rule="evenodd" d="M295.882 373.714C247.368 388.089 199.054 362.911 157.583 340.783C123.999 322.863 109.002 289.322 85.4081 261.409C61.4232 233.032 28.9143 211.206 18.4149 176.131C5.32956 132.419 -15.0219 77.6278 19.3938 40.8838C54.3491 3.56369 118.866 21.4094 170.754 13.4863C209.483 7.57245 245.889 -1.48451 284.421 0.415227C332.471 2.78429 386.102 -2.16428 420.807 25.8148C457.767 55.6122 475.353 103.989 470.761 150.645C466.309 195.876 426.785 231.636 396.783 269.906C366.646 308.348 344.686 359.253 295.882 373.714Z" fill="#FFE000" fill-opacity="0.1"/>
</svg>
